<svg>
  <defs>
    <svg id="home" viewBox="0 0 24 24">
      <path d="M10,20V14H14V20H19V12H22L12,3L2,12H5V20H10Z" />
    </svg>
    <svg id="alert-circle-outline" viewBox="0 0 24 24">
      <path d="M11,15H13V17H11V15M11,7H13V13H11V7M12,2C6.47,2 2,6.5 2,12C2,17.52 6.48,22 12,22C17.52,22 22,17.52 22,12C22,6.48 17.52,2 12,2M12,20C7.58,20 4,16.42 4,12C4,7.58 7.58,4 12,4C16.42,4 20,7.58 20,12C20,16.42 16.42,20 12,20Z" />
    </svg>
    <svg id="menu" viewBox="0 0 24 24">
      <path d="M3,6H21V8H3V6M3,11H21V13H3V11M3,16H21V18H3V16Z" />
    </svg>
    <svg id="account-circle" viewBox="0 0 24 24">
      <path d="M12,19.2C9.5,19.2 7.29,17.92 6,16C6.03,14 10,12.9 12,12.9C14,12.9 17.97,14 18,16C16.71,17.92 14.5,19.2 12,19.2M12,5C13.66,5 15,6.34 15,8C15,9.66 13.66,11 12,11C10.34,11 9,9.66 9,8C9,6.34 10.34,5 12,5M12,2C6.48,2 2,6.48 2,12C2,17.52 6.48,22 12,22C17.52,22 22,17.52 22,12C22,6.47 17.5,2 12,2Z" />
    </svg>
    <svg id="help" viewBox="0 0 24 24">
      <path d="M10,19H13V22H10V19M12,2C17.35,2.22 19.68,7.62 16.5,11.67C15.67,12.67 14.33,13.33 13.67,14.17C13,15 13,16 13,17H10C10,15.33 10,13.92 10.67,12.92C11.33,11.92 12.67,11.33 13.5,10.67C15.92,8.43 15.32,5.26 12,5C10.34,5 9,6.34 9,8H6C6,4.69 8.69,2 12,2Z" />
    </svg>
    <svg id="information-outline" viewBox="0 0 24 24">
      <path d="M11,9H13V7H11M12,20C7.59,20 4,16.41 4,12C4,7.59 7.59,4 12,4C16.41,4 20,7.59 20,12C20,16.41 16.41,20 12,20M12,2C6.48,2 2,6.48 2,12C2,17.52 6.48,22 12,22C17.52,22 22,17.52 22,12C22,6.48 17.52,2 12,2M11,17H13V11H11V17Z" />
    </svg>
    <svg id="power-standby" viewBox="0 0 24 24">
      <path d="M13,3H11V13H13V3M17.83,5.17L16.41,6.59C18.05,7.91 19,9.9 19,12C19,15.87 15.87,19 12,19C8.14,19 5,15.88 5,12C5,9.91 5.95,7.91 7.58,6.58L6.17,5.17C2.38,8.39 1.92,14.07 5.14,17.86C8.36,21.64 14.04,22.1 17.83,18.88C19.85,17.17 21,14.65 21,12C21,9.37 19.84,6.87 17.83,5.17Z" />
    </svg>
    <svg id="check" viewBox="0 0 24 24">
      <path d="M21,7L9,19L3.5,13.5L4.91,12.09L9,16.17L19.59,5.59L21,7Z" />
    </svg>
    <svg id="alert" viewBox="0 0 24 24">
      <path d="M13,14H11V10H13M13,18H11V16H13M1,21H23L12,2L1,21Z" />
    </svg>
  </defs>
</svg>
